<svg xmlns="http://www.w3.org/2000/svg" xmlns:xlink="http://www.w3.org/1999/xlink" version="1.1" id="upArrow" x="0px" y="0px" viewBox="0 0 100 100" enable-background="new 0 0 100 100" xml:space="preserve" height="44px" width="44px">
<g>
	<path d="M77.154,57.374L52.155,32.375c-1.138-1.138-3.153-1.138-4.291,0L22.87,57.374c-1.185,1.185-1.185,3.106,0,4.291   c1.185,1.185,3.106,1.185,4.291,0l22.848-22.854l22.854,22.854c0.593,0.593,1.369,0.889,2.146,0.889   c0.776,0,1.553-0.296,2.146-0.889C78.34,60.48,78.34,58.56,77.154,57.374z"/>
	<path d="M81.641,17.97C73.159,9.598,61.928,4.987,50.015,4.987c-12.132,0-23.512,4.753-32.035,13.389   c-8.452,8.555-13.057,19.887-12.98,31.91c0.071,12.023,4.83,23.298,13.383,31.744c8.481,8.372,19.713,12.983,31.626,12.983   c12.132,0,23.506-4.753,32.029-13.386C99.475,63.965,99.297,35.41,81.641,17.97z M77.723,77.366   C70.35,84.83,60.506,88.944,50.009,88.944c-10.307,0-20.027-3.989-27.358-11.234c-7.403-7.308-11.516-17.06-11.587-27.462   C10.999,39.846,14.988,30.04,22.295,22.64c7.379-7.471,17.223-11.584,27.72-11.584c10.307,0,20.021,3.989,27.358,11.234   C92.653,37.377,92.807,62.083,77.723,77.366z"/>
</g>
</svg>
